<?xml version="1.0" standalone="no"?>
<!DOCTYPE svg PUBLIC "-//W3C//DTD SVG 20010904//EN"
 "http://www.w3.org/TR/2001/REC-SVG-20010904/DTD/svg10.dtd">
<svg version="1.0" xmlns="http://www.w3.org/2000/svg"
 width="700.000000pt" height="700.000000pt" viewBox="0 0 700.000000 700.000000"
 preserveAspectRatio="xMidYMid meet">
<metadata>
Created by potrace 1.11, written by Peter Selinger 2001-2013
</metadata>
<g transform="translate(0.000000,700.000000) scale(0.100000,-0.100000)"
fill="#000000" stroke="none">
<path d="M3150 6639 c-986 -65 -1739 -370 -1869 -756 -18 -54 -20 -82 -18
-329 l2 -269 33 -68 c19 -38 56 -94 82 -126 51 -61 174 -159 259 -208 l51 -28
-1 -275 0 -275 -52 -44 c-119 -101 -196 -223 -217 -341 -8 -46 -10 -459 -8
-1405 3 -1500 -3 -1371 75 -1495 350 -555 1855 -823 3035 -541 562 134 940
368 1044 646 18 48 19 110 22 1390 2 946 0 1359 -8 1405 -21 118 -98 240 -217
341 l-52 44 0 275 -1 275 51 28 c85 49 208 147 259 208 26 32 63 88 82 126
l33 68 2 269 c2 247 0 275 -18 329 -117 347 -745 634 -1599 731 -308 35 -676
44 -970 25z m745 -313 c150 -19 273 -43 378 -72 l88 -25 152 55 c84 30 158 56
166 58 10 2 24 -38 52 -157 21 -88 38 -163 39 -167 0 -5 -224 -8 -497 -8 -278
0 -491 4 -483 9 8 5 80 32 160 61 80 29 149 56 153 60 11 9 -117 44 -248 67
-77 13 -158 18 -355 18 -224 0 -272 -3 -393 -24 l-138 -23 -140 27 c-77 15
-141 31 -144 35 -12 19 337 82 550 100 144 11 520 4 660 -14z m-1276 -220
c244 -66 -50 -199 -308 -141 -56 13 -111 42 -111 60 0 30 56 67 127 84 61 14
233 12 292 -3z m2088 -236 c110 -24 157 -89 93 -129 -74 -45 -281 -54 -399
-17 -107 34 -126 92 -43 129 85 37 224 44 349 17z m-1507 -54 c0 -2 -80 -32
-177 -66 -98 -35 -182 -67 -186 -71 -22 -18 232 -79 415 -100 221 -25 616 1
787 51 27 7 66 3 200 -26 217 -46 212 -44 181 -56 -14 -5 -79 -25 -146 -43
-500 -138 -1199 -123 -1664 35 l-85 29 -215 -78 c-118 -43 -216 -78 -217 -77
-1 1 28 137 68 314 l21 92 509 0 c280 0 509 -2 509 -4z m-1781 -297 c275 -277
805 -458 1576 -541 162 -18 848 -18 1010 0 636 68 1096 201 1420 410 103 66
237 204 276 283 29 60 31 62 25 25 -8 -55 -47 -131 -105 -203 -144 -177 -491
-353 -896 -456 -398 -101 -743 -141 -1225 -141 -482 0 -827 40 -1225 141 -300
76 -590 202 -758 328 -133 101 -229 231 -244 331 -5 37 -4 35 28 -26 22 -44
60 -93 118 -151z m1235 -1428 c30 -26 38 -58 22 -96 -26 -60 -94 -75 -140 -29
-45 46 -32 114 27 139 35 15 62 11 91 -14z m1804 -4 c31 -29 30 -90 -3 -122
-52 -53 -145 -15 -145 58 0 82 86 120 148 64z m-2987 -398 c122 -235 528 -460
1030 -573 358 -80 557 -100 999 -100 382 0 495 8 765 54 711 122 1198 386
1306 709 7 20 8 16 4 -19 -8 -66 -66 -176 -132 -249 -283 -313 -934 -524
-1731 -561 -931 -42 -1818 188 -2155 561 -66 73 -124 183 -132 249 -4 35 -3
39 4 19 5 -15 24 -55 42 -90z m1939 -1115 c91 -4 218 -2 308 5 138 11 156 10
188 -5 67 -32 65 -4 62 -813 -3 -719 -3 -730 -24 -758 -43 -60 -71 -65 -348
-71 -284 -5 -442 6 -480 35 -59 44 -56 4 -56 810 0 666 2 741 16 762 25 35 72
52 129 46 28 -3 120 -8 205 -11z m1870 -516 l64 -511 -35 -29 c-128 -110 -434
-275 -664 -361 -135 -50 -304 -102 -308 -96 -5 6 -204 1063 -201 1067 1 2 60
18 130 37 329 86 652 219 869 359 39 24 73 45 76 45 3 1 34 -229 69 -511z
m-3782 -700 c197 -287 725 -511 1404 -598 713 -91 1494 -12 2035 206 329 132
537 298 621 494 19 45 22 48 18 21 -18 -106 -70 -198 -165 -291 -258 -252
-734 -424 -1401 -506 -208 -26 -812 -26 -1020 0 -478 58 -830 155 -1109 302
-275 145 -425 308 -457 495 -4 27 -1 24 18 -21 13 -31 38 -76 56 -102z"/>
<path d="M3129 2506 c-5 -6 -9 -288 -9 -727 l0 -718 23 -26 c20 -23 32 -27
127 -35 136 -12 335 -12 480 0 99 8 117 12 133 31 16 20 17 70 17 743 0 396
-4 726 -8 731 -9 13 -749 14 -763 1z"/>
<path d="M5023 1991 c-78 -57 -107 -166 -63 -238 22 -36 37 -42 125 -45 60 -3
60 -3 63 -35 6 -58 -57 -100 -108 -73 -15 8 -24 3 -51 -31 l-33 -42 23 -18
c34 -28 66 -33 118 -18 117 32 184 165 139 274 -19 44 -42 55 -115 55 -72 0
-97 17 -79 55 12 27 38 39 66 31 11 -3 28 8 50 36 29 36 31 43 18 56 -8 8 -36
17 -63 19 -42 4 -54 1 -90 -26z"/>
<path d="M4790 1868 c-24 -10 -46 -21 -48 -23 -2 -2 10 -71 28 -154 17 -85 30
-171 28 -198 -3 -41 -7 -50 -31 -61 -23 -11 -32 -11 -56 1 -28 14 -30 13 -66
-23 l-36 -37 27 -22 c35 -28 65 -35 120 -28 57 6 120 48 142 93 16 34 15 43
-17 237 -19 111 -37 209 -40 218 -5 15 -10 14 -51 -3z"/>
</g>
</svg>
