<?xml version="1.0" standalone="no"?>
<!DOCTYPE svg PUBLIC "-//W3C//DTD SVG 1.1//EN" "http://www.w3.org/Graphics/SVG/1.1/DTD/svg11.dtd" >
<svg xmlns="http://www.w3.org/2000/svg">
<metadata></metadata>
<defs>
<font id="MesloLGMDZRegular" horiz-adv-x="1233" >
<font-face units-per-em="2048" ascent="1638" descent="-410" />
<missing-glyph horiz-adv-x="500" />
<glyph horiz-adv-x="0" />
<glyph horiz-adv-x="2048" />
<glyph unicode=" " />
<glyph unicode="!" d="M516 0v254h263v-254h-263zM546 838v655h203v-655l-21 -307h-161z" />
<glyph unicode="&#x22;" d="M188 935v612h224v-612h-224zM721 935v612h224v-612h-224z" />
<glyph unicode="#" d="M2 412v153h297l98 393h-266v153h303l90 354h160l-90 -354h245l91 354h160l-91 -354h244v-153h-281l-98 -393h250v-153h-289l-104 -412h-160l105 412h-246l-105 -412h-159l104 412h-258zM459 565h246l97 393h-245z" />
<glyph unicode="$" d="M188 90v180q51 -31 101 -54.5t101 -40.5q104 -34 201 -35v458q-200 31 -300 123q-101 92 -101 241q0 158 105 251q106 94 296 107v235h100l1 -235q40 -2 79.5 -7t80.5 -13t82 -18t83 -23v-173q-84 43 -166 67q-79 23 -160 28v-431q206 -32 314 -129q108 -98 108 -252 q0 -155 -117 -258q-116 -103 -304 -112l-1 -303l-102 3l-1 301q-101 4 -202 27q-101 22 -198 63zM371 970q0 -86 54 -135t167 -66l-1 411q-104 -5 -162 -60t-58 -150zM692 145q110 3 171 61q62 59 62 159q0 93 -56 144q-56 52 -177 71v-435z" />
<glyph unicode="%" d="M29 1105q0 134 92 228q91 93 227 93q64 0 123 -24t104 -69t69 -103q24 -59 24 -123q0 -133 -93 -226t-227 -93q-135 0 -227 92t-92 227v-2zM36 550l1115 446l50 -113l-1121 -446zM164 1107q0 -79 53 -132q52 -52 132 -52q77 0 131 54t54 131t-54 131t-131 54 q-75 0 -130 -53q-54 -53 -54 -131zM558 316q0 134 92 228q91 93 225 93q65 0 122 -24q59 -25 104 -70q46 -47 72 -105q25 -57 25 -121q0 -133 -93 -226t-228 -93q-136 0 -228 92q-91 91 -91 228v-2zM693 318q0 -78 53 -131t131 -53q77 0 131 54t54 131t-54 131t-130 54 q-77 0 -130 -53q-52 -52 -52 -132z" />
<glyph unicode="&#x26;" d="M58 444q0 137 69 254t208 217q-51 73 -74 141q-24 69 -24 140q0 150 99 237t272 87q65 0 131 -12q33 -6 67 -15t69 -20v-183q-59 39 -121 57q-63 18 -132 18q-98 0 -153 -45q-56 -45 -56 -122q0 -57 29 -123q28 -65 105 -168l417 -559q38 49 58 124q19 73 19 179 q0 31 -3 102l-1 7h164v-39q0 -162 -37 -282q-38 -122 -112 -210l170 -229h-213l-78 109q-82 -70 -176 -105q-92 -34 -199 -34q-216 0 -357 135t-141 339zM233 473q0 -151 100 -250t255 -99q41 0 88 12q45 12 90 35q27 15 45 27q19 12 34 25l-428 580l-2 -3 q-93 -75 -137 -154q-45 -81 -45 -173z" />
<glyph unicode="'" d="M518 935v623h224v-623h-224z" />
<glyph unicode="(" d="M396 742q0 222 74 450q73 226 225 462h160v-3q-133 -227 -199 -454t-66 -456q0 -230 66 -456q67 -228 199 -456h-160q-151 238 -225 464q-74 227 -74 449z" />
<glyph unicode=")" d="M348 -169q132 231 199 459q66 226 66 453q0 228 -66 455q-67 228 -199 456l160 2q151 -236 225 -462q74 -228 74 -450q0 -223 -74 -451q-74 -227 -225 -462h-160z" />
<glyph unicode="*" d="M60 737l445 241l-445 240l70 123l418 -251v466h143v-466l418 251l70 -123l-444 -240l444 -241l-70 -122l-418 251v-466h-143v466l-418 -251z" />
<glyph unicode="+" d="M108 566v169h444v443h168v-443h445v-169h-445v-443h-168v443h-444z" />
<glyph unicode="," d="M332 -336l110 432v265h312v-265l-222 -431z" />
<glyph unicode="-" d="M102 555v169h1060v-169h-1060z" />
<glyph unicode="." d="M389 0v404h352v-404h-352z" />
<glyph unicode="/" d="M102 -190l787 1683h190l-786 -1683h-191z" />
<glyph unicode="0" d="M133 745q0 383 122 579t361 196t361.5 -196t122.5 -579q0 -382 -122.5 -578t-361.5 -196t-361 196t-122 578zM336 745q0 -310 69.5 -462t210.5 -152q142 0 211.5 152t69.5 462q0 311 -69.5 463t-211.5 152q-141 0 -210.5 -152t-69.5 -463zM483 750q0 55 38.5 95t92.5 40 q56 0 96 -40t40 -95q0 -56 -39.5 -95t-96.5 -39q-56 0 -93.5 38t-37.5 96z" />
<glyph unicode="1" d="M208 1116v194l374 178h202v-1319h310v-169h-824v169h314v1128z" />
<glyph unicode="2" d="M152 2v170l327 348q139 151 192 213q100 121 135 197t35 154q0 125 -73 195q-74 71 -201 71q-92 0 -192 -33q-102 -34 -213 -100v204q103 49 203 75q97 25 197 25q219 0 353 -117t134 -306q0 -96 -45 -192q-23 -48 -58 -101.5t-83 -114.5l-490 -520l686 2v-170h-907z" />
<glyph unicode="3" d="M132 42v201q102 -53 201 -78q101 -26 197 -26q166 0 255 75t89 216q0 130 -89 207t-240 77h-154v166h154q140 0 217 61q78 61 78 171q0 115 -72 177q-73 62 -206 62q-86 0 -183 -20q-95 -20 -198 -60v186q121 31 216 48q92 16 168 16q218 0 348 -109q131 -110 131 -291 q0 -123 -69 -205q-69 -83 -199 -117l-6 -5q147 -39 225 -138t78 -248q0 -206 -138 -323t-383 -117q-106 0 -210 19q-54 10 -106 23.5t-104 31.5z" />
<glyph unicode="4" d="M102 356v191l600 946h234v-973h199v-164h-199v-356h-201v356h-633zM264 520h471v789z" />
<glyph unicode="5" d="M143 33v205q93 -50 185 -74q93 -24 190 -24q168 0 257 88q90 88 90 250q0 160 -93 249q-94 89 -260 89q-82 0 -158 -18q-78 -18 -147 -55v750l755 -3v-170h-572v-367q43 16 87 24q46 8 87 8q232 0 369 -137q136 -136 136 -371q0 -236 -142 -372t-390 -136q-60 0 -113.5 4 t-103.5 12q-99 16 -177 48z" />
<glyph unicode="6" d="M133 745q0 377 146 576q145 198 422 198q73 0 147 -15q72 -15 143 -44l-3 -189q-63 37 -134 57q-72 20 -147 20q-192 0 -291 -144t-99 -425q48 100 133 154t195 54q216 0 335 -132q119 -133 119 -375q0 -241 -122 -375q-121 -133 -342 -133q-260 0 -381 186 q-121 185 -121 587zM351 476q0 -163 74 -257q73 -93 203 -93q133 0 201 89t68 261q0 173 -68 262q-67 88 -201 88q-130 0 -203 -93q-74 -94 -74 -257z" />
<glyph unicode="7" d="M139 1323v170h940v-86l-534 -1407h-211l520 1323h-715z" />
<glyph unicode="8" d="M127 397q0 160 80 261t230 134l-4 -2q-129 33 -201 123t-72 217q0 178 121 283t330 105q208 0 330 -105q121 -105 121 -283q0 -127 -72 -217t-201 -123q151 -33 230 -133q80 -101 80 -259q0 -202 -129 -316t-357 -114t-357 114t-129 315zM332 420q0 -138 75 -214t208 -76 q136 0 210 75q74 76 74 215q0 136 -75 213q-75 76 -208 76l-3 -1q-135 0 -208 -75q-73 -74 -73 -213zM359 1111q0 -120 64 -183t186 -63q121 0 186 63q64 63 64 183q0 121 -63 186q-63 64 -186 64q-122 0 -186 -64t-64 -186h-1z" />
<glyph unicode="9" d="M122 1013q0 241 122 374q121 132 344 132q260 0 381 -187t121 -588q0 -378 -145 -575q-146 -198 -423 -198q-74 0 -147 15q-72 15 -143 44l-2 187q63 -37 134 -57q69 -19 147 -19q192 0 291 144t99 425q-46 -100 -132 -154t-195 -54q-216 0 -334 133t-118 378zM325 1012 q0 -173 68 -262q67 -88 203 -88l-4 -1q129 0 203 93q74 94 74 257q0 165 -73 257q-74 93 -202 93q-134 0 -201 -88q-68 -89 -68 -261z" />
<glyph unicode=":" d="M429 0v364h312v-364h-312zM429 758v361h312v-361h-312z" />
<glyph unicode=";" d="M343 -286l99 382v265h312v-265l-197 -382h-214zM429 758v361h312v-361h-312z" />
<glyph unicode="&#x3c;" d="M88 559v166l1057 418v-182l-850 -320l850 -317v-183z" />
<glyph unicode="=" d="M88 331v169h1057v-169h-1057zM88 802v169h1057v-169h-1057z" />
<glyph unicode="&#x3e;" d="M88 141v183l850 317l-850 320v182l1057 -418v-166z" />
<glyph unicode="?" d="M242 1219v188q93 56 190 85q94 28 199 28q186 0 297 -96t111 -257q0 -76 -33 -142t-127 -157l-88 -86q-68 -65 -88 -108q-19 -41 -19 -103v-47v-123l-192 -1v154q0 98 30 167q30 68 114 151l90 89q63 60 86 102q24 43 24 93q0 88 -66 144q-65 55 -175 55q-80 0 -167 -34 q-89 -35 -186 -102zM485 -1v254h203v-254h-203z" />
<glyph unicode="@" d="M27 543q0 389 188 621q187 231 504 231q209 0 333 -133q125 -134 125 -357v-770h-142v111q-37 -63 -103 -97q-65 -34 -148 -34q-161 0 -266 121t-105 309q0 187 105 309q105 121 266 121q79 0 147 -35q67 -34 103 -96v63q0 157 -88 251q-89 95 -234 95q-246 0 -391 -192 q-145 -191 -145 -519q0 -329 165 -524q165 -194 452 -196q27 -4 65 -6t87 -2t92.5 1t81.5 3v-144q-32 -2 -74 -3.5t-93 -1.5q-102 0 -159 9q-346 3 -556 236q-210 232 -210 629zM567 545q0 -129 65 -208q64 -78 171 -78q106 0 171 78q64 77 64 208h-1q0 130 -64 207 q-65 78 -171 78q-107 0 -171 -78q-64 -77 -64 -207z" />
<glyph unicode="A" d="M37 0l457 1493h245l457 -1493h-209l-110 389h-523l-108 -389h-209zM403 551h426l-213 764z" />
<glyph unicode="B" d="M165 -1v1493h440q229 0 354 -99q124 -99 124 -280q0 -98 -66 -177q-66 -80 -196 -99q147 -23 231 -126q84 -104 84 -303q0 -203 -133 -306t-396 -103h-442zM368 916h235q145 0 212 56q66 55 66 141q0 113 -64 162q-65 50 -213 50h-235zM369 164h239q175 0 251 62 q75 61 75 203q0 186 -79 255q-80 69 -247 69h-239v-589z" />
<glyph unicode="C" d="M140 746q0 366 159 570t444 204q91 0 172 -21q41 -11 80.5 -26t77.5 -35v-207q-74 61 -159 93q-87 32 -171 32q-196 0 -294 -152t-98 -459q0 -306 98 -458t294 -152q88 0 173 32q83 31 157 93v-207l1 2q-38 -20 -77.5 -35t-80.5 -26q-81 -21 -172 -21q-286 0 -445 203 q-159 202 -159 570z" />
<glyph unicode="D" d="M137 -2v1493h303q342 0 504 -182t162 -566q0 -383 -162 -564t-504 -181h-303zM340 166h96v-2q255 0 356 126q101 127 101 454q0 332 -100 457q-101 126 -357 126h-96v-1161z" />
<glyph unicode="E" d="M197 0v1493h886v-170h-684v-402h654v-170h-654v-581h703v-170h-905z" />
<glyph unicode="F" d="M233 0v1493h879v-170h-676v-400h613v-170h-613v-753h-203z" />
<glyph unicode="G" d="M101 750q0 367 160 570q160 204 445 204q94 0 180 -27q85 -27 165 -81v-207q-82 78 -166 113q-86 36 -180 36q-196 0 -295 -153t-99 -459q0 -310 96 -460t294 -150q67 0 118 15q52 15 92 48v401h-217v166h410v-643l-1 5q-81 -75 -183 -114t-220 -39q-284 0 -441 204 q-158 205 -158 571z" />
<glyph unicode="H" d="M137 0v1493h203v-572h553v572h203v-1493h-203v751h-553v-751h-203z" />
<glyph unicode="I" d="M201 0v170h313v1153h-313v170h829v-170h-313v-1153h313v-170h-829z" />
<glyph unicode="J" d="M106 294q90 -80 189 -121q96 -40 201 -40q143 0 200 75t57 278v836h-381v170h583v-1006q0 -282 -105 -399t-352 -117q-48 0 -95.5 5.5t-95.5 16.5q-95 22 -198 69z" />
<glyph unicode="K" d="M137 0v1493h203v-664l631 664h237l-581 -610l598 -883h-244l-487 748l-154 -164v-584h-203z" />
<glyph unicode="L" d="M215 0v1493h203v-1323h721v-170h-924z" />
<glyph unicode="M" d="M36 0v1488h270l258 -758l260 758h271v-1488h-187v1315l-266 -784h-153l-267 784v-1315h-186z" />
<glyph unicode="N" d="M19 0v1488h276l584 -1225v1225h215v-1488h-276l-584 1225v-1225h-215z" />
<glyph unicode="O" d="M115 745q0 391 123 583t375 192q254 0 377 -192t123 -583v1q0 -390 -123 -582t-376 -192t-376 191q-123 190 -123 582zM326 745q0 -327 68 -469q67 -141 221 -141t222 141q68 142 68 469h-3q0 330 -67 470q-68 141 -222 141q-153 0 -220 -141q-67 -140 -67 -470z" />
<glyph unicode="P" d="M198 -1v1493h436q250 0 379 -114t129 -333q0 -221 -129 -333q-130 -113 -379 -113h-234v-600h-202zM399 1327l1 -562h234q139 0 218 74q78 73 78 207q0 133 -78 207q-79 74 -219 74h-234z" />
<glyph unicode="Q" d="M119 746q0 391 123 583t375 192q254 0 377 -192t123 -583q0 -294 -69 -474t-208 -252l200 -190l-151 -100l-234 243l2 1h-9t-12 -1t-12 -1h-9q-250 0 -373 192t-123 582zM328 746q0 -327 68 -469q67 -141 221 -141t222 141q68 142 68 469h-3q0 330 -67 470 q-68 141 -222 141q-153 0 -220 -141q-67 -140 -67 -470z" />
<glyph unicode="R" d="M143 -1v1493h416q246 0 377 -111t131 -321q0 -148 -81 -241t-226 -114l-2 -1q77 -19 133 -75q55 -56 138 -222l203 -408h-217l-178 377q-77 160 -138 207q-62 47 -160 47h-193v-631h-203zM343 796h221q145 0 216 65t71 198q0 129 -75 198t-219 69h-213z" />
<glyph unicode="S" d="M139 1079q0 200 135 320t358 120q88 0 180 -19q48 -10 97.5 -24t102.5 -34l1 -205q-46 29 -91.5 51.5t-92.5 37.5q-93 30 -187 30q-143 0 -225 -66q-83 -66 -83 -179q0 -99 54 -151t203 -87l106 -24q211 -50 306 -154q96 -105 96 -286q0 -212 -132 -325 q-131 -112 -384 -112q-53 0 -105 6t-106 17q-104 22 -213 68v215q115 -73 218 -108q101 -34 206 -34q152 0 238 69q85 69 85 192q0 113 -58 171q-59 58 -204 90l-108 25q-209 46 -303 141q-94 94 -94 255z" />
<glyph unicode="T" d="M47 1323v170h1139v-170h-467v-1323h-203v1323h-469z" />
<glyph unicode="U" d="M147 573l3 918h203v-1012q0 -110 6 -156q6 -47 21 -72q32 -59 92 -89t146 -30q87 0 147 30t93 89q15 25 21 72q6 46 6 154v1014h202v-920q0 -231 -28 -325q-29 -96 -99 -159q-66 -59 -151 -87q-87 -29 -192 -29q-103 0 -190 29q-86 28 -153 87q-69 62 -98 161 q-29 101 -29 325z" />
<glyph unicode="V" d="M57 1493h209l350 -1323l351 1323h209l-437 -1493h-245z" />
<glyph unicode="W" d="M0 1493h197l143 -1212l170 802h211l172 -804l143 1214h197l-223 -1493h-191l-203 887l-202 -887h-191z" />
<glyph unicode="X" d="M18 0l500 791l-432 702h217l328 -563l334 563h217l-447 -702l479 -791h-217l-366 643l-395 -643h-218z" />
<glyph unicode="Y" d="M37 1493h215l364 -659l363 659h217l-479 -823v-670h-203v670z" />
<glyph unicode="Z" d="M156 0v154l759 1169h-737v170h969v-154l-780 -1169h802v-170h-1013z" />
<glyph unicode="[" d="M563 -170v1826h424v-143h-240v-1540h240v-143h-424z" />
<glyph unicode="\" d="M102 1493h191l786 -1683h-190z" />
<glyph unicode="]" d="M296 -27h240v1540h-240v143h424v-1826h-424v143z" />
<glyph unicode="^" d="M36 892l492 596h177l491 -596l-213 1l-367 393l-366 -393z" />
<glyph unicode="_" d="M0 -190h1224v-170h-1224v170z" />
<glyph unicode="`" d="M279 1638h198l281 -376h-154z" />
<glyph unicode="a" d="M131 325q0 187 126 285q125 97 369 97h247v29q-2 134 -69 194q-68 60 -214 60q-94 0 -190 -27q-97 -27 -187 -79v184q51 20 99.5 34.5t95.5 24.5q95 20 182 20q138 0 238 -41q98 -40 160 -123q37 -50 54 -123q16 -71 16 -220l-2 -639h-185v166q-58 -100 -148 -148 t-217 -48q-171 0 -273 96t-102 258zM317 338q0 -101 61 -156q62 -56 169 -56q152 0 239 105q86 104 88 291v41h-172l-62 1q-161 0 -242 -57t-81 -169z" />
<glyph unicode="b" d="M193 -4v1556h184v-579v1q43 82 122 126t180 44q202 0 318 -156q116 -157 116 -429q0 -278 -117 -435t-319 -157q-100 0 -177 44q-77 43 -123 126v-141h-184zM377 557q0 -212 69 -321q69 -110 203 -110t201 109q68 110 68 324v-4q0 214 -68 324q-67 109 -201 109 t-203 -109q-69 -110 -69 -322z" />
<glyph unicode="c" d="M195 559q0 276 147 432t406 156q81 0 158 -21q76 -21 155 -65v-193q-74 64 -147 93q-75 29 -166 29q-173 0 -266 -112q-93 -113 -93 -321q0 -207 93 -319t266 -112q95 0 172 30q76 30 141 92v-191l-1 -1q-72 -42 -152 -64q-78 -21 -160 -21q-259 0 -406 156t-147 432z " />
<glyph unicode="d" d="M125 561q0 273 117 429t319 156q101 0 177 -43q76 -44 120 -126l3 575h184v-1556h-184v141q-47 -83 -123 -126t-177 -43q-202 0 -319 158q-117 157 -117 435zM319 557q0 -214 68 -324q67 -109 201 -109t203 110q69 109 69 321q0 213 -69 323t-202 110q-134 0 -201 -109 q-68 -110 -68 -324z" />
<glyph unicode="e" d="M123 559q0 268 144 429q144 160 384 160q215 0 338 -145q124 -146 131 -351l-1 -89h-797v-6q-1 -18 -1 -35q0 -203 89 -295q96 -100 270 -100q90 0 184 28q97 29 205 85v-183q-103 -43 -202 -64q-98 -21 -189 -21q-261 0 -408 156t-147 431zM329 706l606 1l-2 1 q-12 116 -84 200t-208 84q-134 0 -219 -88q-86 -89 -93 -198z" />
<glyph unicode="f" d="M196 977v143h299v78q0 184 84 271t263 87h221l2 -153h-209q-99 0 -138 -40q-39 -41 -39 -144v-99h385v-143h-385v-977h-184v977h-299z" />
<glyph unicode="g" d="M120 568q0 263 117 421q117 157 313 157q109 0 183 -43q76 -44 122 -133v145h184v-1044l2 2q0 -251 -119 -382q-118 -130 -350 -130q-38 0 -77.5 3.5t-81.5 10.5t-82.5 17t-82.5 24v182q97 -47 177 -69q78 -22 147 -22q148 0 216 81q68 82 68 257v8v125 q-44 -95 -120 -141t-186 -46q-196 0 -313 157t-117 420zM315 568q0 -207 72 -315t208 -108q128 0 195 109q68 110 68 315l-3 -1q0 208 -67 315q-68 108 -196 108q-136 0 -206 -108q-71 -109 -71 -315z" />
<glyph unicode="h" d="M196 -2v1556h184v-604q50 97 133 146q85 50 199 50q171 0 255 -112q84 -113 84 -340l-1 -697h-185v694q0 151 -53 222t-165 71q-129 0 -198 -91q-69 -92 -69 -262v-633h-184z" />
<glyph unicode="i" d="M238 0v143h365v830h-287v143h471v-973h365v-143h-914zM603 1319v232h184v-232h-184z" />
<glyph unicode="j" d="M186 -271h234q90 0 135 63t45 188l1 995h-317v143h501v-1140q0 -195 -90 -300t-255 -105h-254v156zM601 1321v233h184v-233h-184z" />
<glyph unicode="k" d="M236 0v1556h190v-901l483 465h224l-441 -422l510 -698h-225l-414 578l-137 -129v-449h-190z" />
<glyph unicode="l" d="M240 1418v144h479v-1157v1q0 -124 45 -187t134 -63h215v-155h-233q-165 0 -255 105t-90 299v1013h-295z" />
<glyph unicode="m" d="M107 -2v1120h167v-96q33 60 83 92t113 32q75 0 127 -35q50 -34 79 -105l-3 -1q35 73 87 107q53 35 126 35q135 0 191 -105q56 -106 56 -394v-649h-168v641q0 237 -27 294t-97 57q-79 0 -109 -61q-30 -62 -30 -291v-641h-168v641q0 241 -28 296q-29 56 -102 56 q-74 0 -102 -61q-28 -60 -28 -291v-641h-167z" />
<glyph unicode="n" d="M196 -2v1120h184v-168q50 97 133 146q85 50 199 50q171 0 255 -112q84 -113 84 -340l-1 -697h-185v694q0 151 -53 222t-165 71q-129 0 -198 -91q-69 -92 -69 -262v-633h-184z" />
<glyph unicode="o" d="M137 556q0 286 123 438q123 151 356 151h1q233 0 356 -151q123 -152 123 -438q0 -287 -123 -437t-357 -150q-233 0 -356 150t-123 437zM332 556q0 -213 72 -322t212 -109q141 0 213 110q72 109 72 323t-72 324q-72 109 -213 109v-2q-140 0 -212 -109q-72 -110 -72 -324z " />
<glyph unicode="p" d="M188 -425v1546h185v-143q46 82 123 126t177 44q203 0 318 -157q116 -158 116 -435q0 -272 -116 -429q-116 -156 -318 -156q-101 0 -178 44q-77 43 -120 126l-2 -566h-185zM372 558q0 -212 69 -321q69 -110 203 -110t201 109q68 110 68 324l-1 -4q0 215 -67 324t-201 109 t-203 -109q-69 -110 -69 -322z" />
<glyph unicode="q" d="M135 550q0 277 116 435q115 157 318 157q101 0 177 -43q76 -44 123 -126v143h185v-1546h-185v569l-1 -2q-45 -82 -121 -127q-77 -45 -177 -45q-201 0 -318 156t-117 429zM331 555q0 -214 68 -324q67 -109 201 -109q133 0 202 110q69 109 69 323q0 213 -69 323t-202 110 q-134 0 -201 -109t-67 -324h-1z" />
<glyph unicode="r" d="M362 1v1120h185v-219q47 120 142 182q96 63 227 63q66 0 126 -17q58 -16 113 -53v-188l2 1q-57 46 -120 67q-62 21 -135 21q-173 0 -264 -108q-91 -107 -91 -312v-557h-185z" />
<glyph unicode="s" d="M212 40v190q52 -26 101 -45.5t97 -33.5q94 -27 178 -27q121 0 189 50q67 49 67 138q0 127 -245 177l-8 2l-69 14q-158 31 -232 105q-73 73 -73 201q0 161 109 248t312 87q45 0 88 -4t85 -12q85 -17 162 -49l-2 -184q-80 46 -159 69q-81 23 -162 23q-125 0 -186 -40 t-61 -123q0 -75 46 -112q47 -38 229 -72l74 -14q136 -25 207 -104t71 -203q0 -166 -118 -259q-119 -93 -328 -93q-83 0 -174 18q-46 9 -95 22.5t-103 30.5z" />
<glyph unicode="t" d="M131 977v143h299v318h184v-316h418v-143h-418v-608q0 -124 47 -174q46 -49 164 -49h207v-147h-225q-206 0 -292 83q-85 82 -85 285v608h-299z" />
<glyph unicode="u" d="M193 1116h184v-694q0 -152 54 -222q54 -71 166 -71q130 0 199 92q69 91 69 263v633h185v-1118h-185v168q-50 -98 -133 -147q-85 -50 -197 -50q-172 0 -256 113q-84 112 -84 341z" />
<glyph unicode="v" d="M100 1120h191l325 -940l326 940h191l-398 -1120h-237z" />
<glyph unicode="w" d="M0 1120h182l195 -905l160 578h157l162 -578l195 905h182l-262 -1120h-176l-179 614l-178 -614h-176z" />
<glyph unicode="x" d="M76 0l440 584l-401 536h204l297 -405l295 405h207l-401 -536l440 -584h-213l-328 449l-327 -449h-213z" />
<glyph unicode="y" d="M104 1120h195l332 -876l327 876h195l-295 -760l-117 -308q-99 -265 -133 -322q-47 -78 -115 -117q-69 -39 -161 -39h-148v154h109q80 0 127 47q46 46 117 243z" />
<glyph unicode="z" d="M203 0v170l643 805h-619v147h813v-168l-643 -804h643v-150h-837z" />
<glyph unicode="{" d="M176 639v143h122q142 0 197 67q56 68 56 198v260q0 220 84 294q85 74 333 74h64v-143h-70q-140 0 -182 -43q-42 -44 -42 -186v-268q0 -176 -69 -236t-269 -87q195 -23 266 -88q72 -66 72 -237v-209q0 -143 42 -186t182 -43h70l-2 -146h-64q-248 0 -333 74q-84 73 -84 294 v200q0 110 -61 189t-190 79h-122z" />
<glyph unicode="|" d="M570 -483v2048h172v-2048h-172z" />
<glyph unicode="}" d="M217 1533v143h64q250 0 333 -73q84 -74 84 -294v-260q0 -130 56 -198q55 -67 197 -67h122v-143h-122q-129 0 -190 -79t-61 -189v-200q0 -221 -84 -294q-85 -74 -333 -74h-64v144h70l-2 -1q140 0 182 43t42 186v209q0 171 72 237q73 67 266 89q-200 27 -269 87t-69 236 v268q0 142 -42 186t-182 44h-70z" />
<glyph unicode="~" d="M12 573q58 184 150 273q91 88 185 88q169 1 303 -201q133 -202 227 -202q79 0 129 87q50 88 81 166l128 -88q-85 -196 -168 -268t-171 -72q-139 7 -252 146l-158 195q-47 57 -120 56q-77 0 -117 -72q-41 -73 -84 -184z" />
<glyph unicode="&#xa0;" />
<glyph unicode="&#xa1;" d="M516 0v655l21 357h161l21 -357v-655h-203zM516 1239v254h203v-254h-203z" />
<glyph unicode="&#xa2;" d="M212 558q0 250 132 409q132 158 354 178v287h123v-287q35 -3 102 -20q64 -17 138 -48l-2 -175q-68 40 -132 63q-65 22 -108 27v-870q43 4 109 27q66 22 132 63v-172q-74 -32 -138 -48q-67 -17 -102 -20v-286h-123v286q-224 22 -355 179q-130 155 -130 407zM404 555 q0 -183 80 -301q79 -116 212 -130v864q-133 -12 -212 -130q-80 -119 -80 -303z" />
<glyph unicode="&#xa3;" d="M137 1v170h236v465h-199v143h199v238q0 253 110 378t333 125q65 0 134 -15q71 -15 142 -43l-4 -182q-61 43 -125 66q-62 22 -130 22q-134 0 -197 -90t-63 -282v-217h371v-143h-371v-465h537v-170h-973z" />
<glyph unicode="&#xa4;" d="M206 994l94 95l166 -168q46 31 91 46t96 15q46 0 93 -15q48 -15 98 -45l166 164l90 -93l-166 -166q30 -50 45 -96q15 -47 15 -94q0 -50 -15 -95q-15 -46 -46 -90l168 -166l-94 -94l-166 167q-46 -31 -91 -46t-95 -15q-48 0 -96 15q-50 16 -96 43l-164 -163l-92 90 l166 166q-30 49 -46 98q-15 46 -15 93q0 49 15 96q15 46 47 92zM437 643q0 -91 63 -154t153 -63q91 0 153 63q62 64 62 154v-2q0 90 -62 152t-153 62t-153 -61q-63 -62 -63 -151z" />
<glyph unicode="&#xa5;" d="M37 1493h215l364 -659l363 659h217l-330 -561h252v-111h-315l-86 -151v-35h401v-111h-401v-524h-203v524h-399v111h399v35l-90 151h-309v111h243z" />
<glyph unicode="&#xa6;" d="M530 -350v758h172v-758h-172zM530 674v758h172v-758h-172z" />
<glyph unicode="&#xa7;" d="M199 722q0 90 47 163q46 71 138 121q-60 43 -90 99q-30 55 -30 125q0 131 100 210q101 80 267 80q72 0 149 -15q38 -8 77 -18.5t79 -24.5l2 -172q-42 20 -80 34.5t-74 24.5q-74 20 -129 20q-98 0 -151 -40q-54 -41 -54 -111q0 -90 205 -205l40 -23q211 -119 276 -195 q65 -77 65 -177q0 -90 -45 -160q-45 -71 -138 -123q62 -53 90 -106q29 -55 29 -118q0 -142 -102 -226t-275 -84q-73 0 -151 15q-39 8 -80 19t-85 25v164q44 -20 84 -34t77 -24q72 -19 131 -19q102 0 159 42t57 118q0 102 -221 225l-24 14q-214 120 -279 197q-64 76 -64 179z M364 747q0 -76 71 -144q70 -68 318 -201q62 46 92 90q30 45 30 92q0 76 -72 144q-74 69 -316 200l-1 1q-62 -46 -92 -90q-30 -45 -30 -92z" />
<glyph unicode="&#xa8;" d="M319 1350v202h203v-202h-203zM711 1350v202h202v-202h-202z" />
<glyph unicode="&#xa9;" d="M-4 738q0 128 46 236q47 110 136 201q90 90 199 135t235 45l-1 -1q127 0 237 -45q109 -45 199 -135q89 -91 136 -201q46 -108 46 -236q0 -125 -45 -234q-45 -110 -136 -201t-201 -136t-235 -45t-234 45t-201 137q-91 91 -136 201q-45 109 -45 234zM98 738q0 -104 39 -195 t114 -166q76 -76 167 -114t195 -38q106 0 197 38t167 114t114 167t38 195q0 105 -38 198q-38 91 -113 167q-74 74 -165 112q-89 37 -197 37l-4 -1q-107 0 -196 -37q-91 -38 -165 -112q-75 -75 -114 -167t-39 -198zM251 741q0 172 104 273t282 101q31 0 60 -3t58 -8 q56 -10 109 -33v-110q-59 28 -114 42q-58 14 -114 14q-117 0 -184 -75q-67 -74 -67 -202q0 -133 70 -203q71 -71 201 -71q56 0 107 12q50 12 101 38v-104q-53 -23 -109 -33q-29 -5 -58 -8t-60 -3q-180 0 -283 100t-103 273z" />
<glyph unicode="&#xaa;" d="M270 951q0 128 93 199q92 70 266 70h182v4q0 89 -60 136q-59 46 -177 46q-51 0 -114 -18q-62 -18 -130 -51v127q67 28 135 42q70 14 131 14q184 0 270 -86t86 -269l3 -446h-143v112q-50 -66 -115 -98q-66 -33 -148 -33q-128 0 -204 68q-75 67 -75 183zM294 471v123h668 v-123h-668zM414 958q0 -64 44 -103q43 -39 116 -39q105 0 171 72t66 187v29h-127h-2q-145 0 -206 -34q-62 -35 -62 -112z" />
<glyph unicode="&#xab;" d="M119 559v82l469 418v-191l-301 -268l301 -268v-191zM573 559v82l469 418v-191l-301 -268l301 -268v-191z" />
<glyph unicode="&#xac;" d="M88 690v172h1057v-491h-168v319h-889z" />
<glyph unicode="&#xad;" d="M132 555v189h990v-189h-990z" />
<glyph unicode="&#xae;" d="M-1 738q0 128 46 236q47 110 136 201q90 90 199 135t235 45l-1 -1q127 0 237 -45q109 -45 199 -135q89 -91 136 -201q46 -108 46 -236q0 -125 -45 -234q-45 -110 -136 -201t-201 -136t-235 -45t-234 45t-201 137q-91 91 -136 201q-45 109 -45 234zM96 736q0 -104 39 -195 t114 -166q76 -76 167 -114t195 -38q106 0 197 38t167 114t114 167t38 195q0 105 -38 198q-38 91 -113 167q-74 74 -165 112q-89 37 -197 37l-4 -1q-107 0 -196 -37q-91 -38 -165 -112q-75 -75 -114 -167t-39 -198zM362 406v694h238l-1 -2q148 0 219 -49q72 -50 72 -150 q0 -70 -44 -117t-123 -60q19 -4 48 -38q27 -32 66 -92l114 -186h-143l-107 174q-50 81 -79 101q-30 21 -75 21h-55v-296h-130zM491 781h102q89 0 127 27q37 27 37 90q0 62 -37 89q-38 27 -127 27l-102 -1v-232z" />
<glyph unicode="&#xaf;" d="M117 1378v148h998v-148h-998z" />
<glyph unicode="&#xb0;" d="M299 1200q0 133 92 227q91 93 225 93v-2q64 0 123 -24t102 -70q45 -45 69 -102t24 -123q0 -132 -93 -223q-92 -91 -227 -91t-225 90t-90 225zM425 1198q0 -80 54 -134t134 -54q81 0 137 55q57 55 57 133q0 79 -56 135t-135 56l-1 -1q-80 0 -135 -55t-55 -135z" />
<glyph unicode="&#xb1;" d="M88 0v170h1057v-170h-1057zM88 752v170h444v369h168v-369h445v-170h-445v-372h-168v372h-444z" />
<glyph unicode="&#xb2;" d="M324 667v110l231 226q100 97 141 159t41 112q0 61 -50 99t-132 38q-49 0 -106 -18t-120 -54v125q64 28 125 42q62 14 119 14q142 0 228 -66t86 -173q0 -58 -37 -117q-38 -60 -156 -177l-211 -205l412 -1v-114h-571z" />
<glyph unicode="&#xb3;" d="M325 694v121q35 -14 66 -23.5t60 -16.5q55 -13 102 -13q100 0 159 41t59 108q0 74 -55 111q-56 38 -165 38h-66v108h74q92 0 142 32q49 31 49 92q0 55 -48 87q-49 32 -135 32q-44 0 -99 -12q-28 -6 -56.5 -15t-57.5 -20v121q35 8 67 14.5t61 11.5q58 9 108 9 q144 0 229 -59q84 -59 84 -158q0 -70 -44 -117q-43 -46 -128 -66l-2 1q94 -21 144 -75q50 -55 50 -134q0 -124 -95 -192q-94 -67 -272 -67q-29 0 -57.5 3t-57.5 8q-58 11 -116 30z" />
<glyph unicode="&#xb4;" d="M475 1262l281 376h198l-325 -376h-154z" />
<glyph unicode="&#xb5;" d="M191 1118h184v-696q0 -142 60 -217t171 -75q128 0 192 85q65 86 65 252v653h185v-864q0 -59 16 -87t49 -28q7 0 24 5q14 4 43 18v-148q-38 -23 -72 -33q-36 -11 -69 -11q-62 0 -99 39q-37 38 -49 119q-47 -81 -112 -119q-66 -39 -155 -39q-91 0 -155 38t-107 117v-555 h-167z" />
<glyph unicode="&#xb6;" d="M106 1071q0 190 131 306t345 116l448 -1v-1690h-141v1567h-191v-1567h-141v846q-214 16 -333 128q-118 111 -118 295z" />
<glyph unicode="&#xb7;" d="M489 559v305h252v-305h-252z" />
<glyph unicode="&#xb8;" d="M395 -242q34 -17 72 -24q35 -7 84 -7q59 0 89 24t30 70q0 31 -22 74q-23 43 -66 105h118l-2 -4q57 -63 83 -114q27 -53 27 -100q0 -89 -60 -134t-178 -45q-45 0 -88 6q-44 6 -87 18v131z" />
<glyph unicode="&#xb9;" d="M344 1348v116l229 39h138v-725h204v-110h-553v110h205v611z" />
<glyph unicode="&#xba;" d="M242 1108q0 187 102 300q102 112 271 112l-3 -1q170 0 272 -112q102 -113 102 -300q0 -186 -101 -298q-101 -111 -272 -111q-170 0 -270 111q-101 112 -101 299zM272 468v123h676v-123h-676zM399 1108q0 -140 57 -216q57 -77 159 -77q100 0 159 78q59 79 59 215 q0 139 -57 217t-160 78h-1q-102 0 -159 -78t-57 -217z" />
<glyph unicode="&#xbb;" d="M193 141v191l301 268l-301 268v191l469 -418v-82zM647 141v191l301 268l-301 268v191l469 -418v-82z" />
<glyph unicode="&#xbc;" d="M27 612l1060 262l27 -108l-1063 -262zM87 1504v116l229 39h138v-725h204v-110h-553v110h205v611zM452 38l363 528h162v-538h116v-111h-116v-186h-138v186h-387v121zM565 28h274v413z" />
<glyph unicode="&#xbd;" d="M27 612l1060 262l27 -108l-1063 -262zM87 1504v116l229 39h138v-725h204v-110h-553v110h205v611zM525 -160l231 226q100 97 141 159t41 112q0 61 -50 99t-132 38q-49 0 -106 -18t-120 -54v125q64 28 125 42q62 14 119 14q142 0 228 -66t86 -173q0 -58 -37 -117 q-38 -60 -156 -177l-211 -205l412 -1v-114h-571v110z" />
<glyph unicode="&#xbe;" d="M25 613l1060 262l27 -108l-1063 -262zM99 850v121q35 -14 66 -23.5t60 -16.5q55 -13 102 -13q100 0 159 41t59 108q0 74 -55 111q-56 38 -165 38h-66v108h74q92 0 142 32q49 31 49 92q0 55 -48 87q-49 32 -135 32q-44 0 -99 -12q-28 -6 -56.5 -15t-57.5 -20v121 q35 8 67 14.5t61 11.5q58 9 108 9q144 0 229 -59q84 -59 84 -158q0 -70 -44 -117q-43 -46 -128 -66l-2 1q94 -21 144 -75q50 -55 50 -134q0 -124 -95 -192q-94 -67 -272 -67q-29 0 -57.5 3t-57.5 8q-58 11 -116 30zM452 38l363 528h162v-538h116v-111h-116v-186h-138v186 h-387v121zM565 28h274v413z" />
<glyph unicode="&#xbf;" d="M193 326q0 76 33 142t127 157l88 86q68 65 87 106t19 105v5q1 11 1.5 21.5t0.5 20.5v123l190 -1v-154q0 -97 -30 -166q-30 -68 -114 -151l-90 -89q-60 -57 -85 -102q-24 -44 -24 -93q0 -89 66 -144q65 -55 175 -55q77 0 167 35q88 34 186 102v-188q-93 -56 -190 -85 q-94 -28 -199 -28q-186 0 -297 96t-111 257zM543 1238v254h202v-254h-202z" />
<glyph unicode="&#xc0;" d="M37 0l457 1493h245l457 -1493h-209l-110 389h-523l-108 -389h-209zM377 1899h184l197 -264h-154zM403 551h426l-213 764z" />
<glyph unicode="&#xc1;" d="M37 0l457 1493h245l457 -1493h-209l-110 389h-523l-108 -389h-209zM403 551h426l-213 764zM475 1635l197 264h186l-229 -264h-154z" />
<glyph unicode="&#xc2;" d="M37 0l457 1493h245l457 -1493h-209l-110 389h-523l-108 -389h-209zM311 1635l211 266h189l211 -266h-140l-166 178l-165 -178h-140zM403 551h426l-213 764z" />
<glyph unicode="&#xc3;" d="M37 0l457 1493h245l457 -1493h-209l-110 389h-523l-108 -389h-209zM286 1669q0 100 51 159t137 59q34 0 66 -8q29 -7 80 -35l57 -30q21 -13 40 -19q18 -6 33 -6q31 0 51 26t20 66v6h125q-1 -99 -53 -160q-51 -60 -135 -60q-32 0 -64 8q-15 4 -35.5 12.5t-46.5 22.5 l-60 34q-13 7 -22.5 12t-17.5 8q-15 6 -27 6q-35 0 -54 -25q-20 -26 -20 -70v-6h-125zM403 551h426l-213 764z" />
<glyph unicode="&#xc4;" d="M37 0l457 1493h245l457 -1493h-209l-110 389h-523l-108 -389h-209zM319 1667v203h203v-203h-203zM403 551h426l-213 764zM711 1667v203h202v-203h-202z" />
<glyph unicode="&#xc5;" d="M37 -2l428 1399h-1q-58 33 -91 93t-33 134q0 113 80 195q79 81 194 81q114 0 195 -81t81 -195q0 -73 -32 -132t-90 -95l428 -1399h-209l-110 389h-523l-108 -389h-209zM403 549h426l-213 760zM464 1626q0 -63 44 -107t107 -44q62 0 108 44q45 43 45 107v-2q0 63 -45 108 t-108 45q-65 0 -108 -43t-43 -108z" />
<glyph unicode="&#xc6;" d="M0 0l410 1493h751v-170h-338v-442h307v-170h-307v-541h357v-170h-543v383h-352l-101 -383h-184zM328 551h309v772h-107z" />
<glyph unicode="&#xc7;" d="M138 742q0 366 159 570t444 204q91 0 172 -21q41 -11 80.5 -26t77.5 -35v-207q-74 61 -159 93q-87 32 -171 32q-196 0 -294 -152t-98 -459q0 -306 98 -458t294 -152q88 0 173 32q83 31 157 93v-207l1 2q-38 -20 -77.5 -35t-80.5 -26q-81 -21 -172 -21q-286 0 -445 203 q-159 202 -159 570zM495 -242q34 -17 72 -24q35 -7 84 -7q59 0 89 24t30 70q0 31 -22 74q-23 43 -66 105h118l-2 -4q57 -63 83 -114q27 -53 27 -100q0 -89 -60 -134t-178 -45q-45 0 -88 6q-44 6 -87 18v131z" />
<glyph unicode="&#xc8;" d="M197 0v1493h886v-170h-684v-402h654v-170h-654v-581h703v-170h-905zM395 1899h184l197 -264h-154z" />
<glyph unicode="&#xc9;" d="M197 0v1493h886v-170h-684v-402h654v-170h-654v-581h703v-170h-905zM493 1635l197 264h186l-229 -264h-154z" />
<glyph unicode="&#xca;" d="M197 0v1493h886v-170h-684v-402h654v-170h-654v-581h703v-170h-905zM329 1635l211 266h189l211 -266h-140l-166 178l-165 -178h-140z" />
<glyph unicode="&#xcb;" d="M197 0v1493h886v-170h-684v-402h654v-170h-654v-581h703v-170h-905zM337 1667v203h203v-203h-203zM729 1667v203h202v-203h-202z" />
<glyph unicode="&#xcc;" d="M201 0v170h313v1153h-313v170h829v-170h-313v-1153h313v-170h-829zM377 1899h184l197 -264h-154z" />
<glyph unicode="&#xcd;" d="M201 0v170h313v1153h-313v170h829v-170h-313v-1153h313v-170h-829zM475 1635l197 264h186l-229 -264h-154z" />
<glyph unicode="&#xce;" d="M201 0v170h313v1153h-313v170h829v-170h-313v-1153h313v-170h-829zM311 1635l211 266h189l211 -266h-140l-166 178l-165 -178h-140z" />
<glyph unicode="&#xcf;" d="M201 0v170h313v1153h-313v170h829v-170h-313v-1153h313v-170h-829zM319 1667v203h203v-203h-203zM711 1667v203h202v-203h-202z" />
<glyph unicode="&#xd0;" d="M8 709v149h125v635h303h-1q342 0 504 -182t162 -566q0 -383 -162 -564t-503 -181h-303v709h-125zM339 166h96v-2q255 0 356 126q101 127 101 454q0 332 -100 457q-101 126 -357 126h-96v-469h264v-149h-264v-543z" />
<glyph unicode="&#xd1;" d="M19 0v1488h276l584 -1225v1225h215v-1488h-276l-584 1225v-1225h-215zM286 1673q0 100 51 159t137 59q34 0 66 -8q29 -7 80 -35l57 -30q21 -13 40 -19q18 -6 33 -6q31 0 51 26t20 66v6h125q-1 -99 -53 -160q-51 -60 -135 -60q-32 0 -64 8q-15 4 -35.5 12.5t-46.5 22.5 l-60 34q-13 7 -22.5 12t-17.5 8q-15 6 -27 6q-35 0 -54 -25q-20 -26 -20 -70v-6h-125z" />
<glyph unicode="&#xd2;" d="M115 745q0 391 123 583t375 192q254 0 377 -192t123 -583v1q0 -390 -123 -582t-376 -192t-376 191q-123 190 -123 582zM326 745q0 -327 68 -469q67 -141 221 -141t222 141q68 142 68 469h-3q0 330 -67 470q-68 141 -222 141q-153 0 -220 -141q-67 -140 -67 -470z M374 1900h184l197 -264h-154z" />
<glyph unicode="&#xd3;" d="M115 745q0 391 123 583t375 192q254 0 377 -192t123 -583v1q0 -390 -123 -582t-376 -192t-376 191q-123 190 -123 582zM326 745q0 -327 68 -469q67 -141 221 -141t222 141q68 142 68 469h-3q0 330 -67 470q-68 141 -222 141q-153 0 -220 -141q-67 -140 -67 -470z M472 1636l197 264h186l-229 -264h-154z" />
<glyph unicode="&#xd4;" d="M115 745q0 391 123 583t375 192q254 0 377 -192t123 -583v1q0 -390 -123 -582t-376 -192t-376 191q-123 190 -123 582zM308 1636l211 266h189l211 -266h-140l-166 178l-165 -178h-140zM326 745q0 -327 68 -469q67 -141 221 -141t222 141q68 142 68 469h-3q0 330 -67 470 q-68 141 -222 141q-153 0 -220 -141q-67 -140 -67 -470z" />
<glyph unicode="&#xd5;" d="M115 745q0 391 123 583t375 192q254 0 377 -192t123 -583v1q0 -390 -123 -582t-376 -192t-376 191q-123 190 -123 582zM283 1670q0 100 51 159t137 59q34 0 66 -8q29 -7 80 -35l57 -30q21 -13 40 -19q18 -6 33 -6q31 0 51 26t20 66v6h125q-1 -99 -53 -160 q-51 -60 -135 -60q-32 0 -64 8q-15 4 -35.5 12.5t-46.5 22.5l-60 34q-13 7 -22.5 12t-17.5 8q-15 6 -27 6q-35 0 -54 -25q-20 -26 -20 -70v-6h-125zM326 745q0 -327 68 -469q67 -141 221 -141t222 141q68 142 68 469h-3q0 330 -67 470q-68 141 -222 141q-153 0 -220 -141 q-67 -140 -67 -470z" />
<glyph unicode="&#xd6;" d="M115 745q0 391 123 583t375 192q254 0 377 -192t123 -583v1q0 -390 -123 -582t-376 -192t-376 191q-123 190 -123 582zM316 1668v203h203v-203h-203zM326 745q0 -327 68 -469q67 -141 221 -141t222 141q68 142 68 469h-3q0 330 -67 470q-68 141 -222 141 q-153 0 -220 -141q-67 -140 -67 -470zM708 1668v203h202v-203h-202z" />
<glyph unicode="&#xd7;" d="M150 293l350 348l-350 350l116 117l350 -350l351 350l116 -117l-350 -350l348 -348l-116 -119l-349 350l-348 -350z" />
<glyph unicode="&#xd8;" d="M4 2l178 252q-32 75 -50 204q-18 130 -18 288q0 391 123 583t375 192q114 0 202 -41q87 -41 144 -120l139 201l100 -74l-168 -238l-1 -1q41 -82 62 -210q21 -129 21 -292q0 -390 -123 -582t-376 -192q-120 0 -211 41q-89 40 -151 122l-143 -203zM325 687q0 -79 3 -130 q2 -26 4 -47t4 -38l503 720q-26 81 -82 123q-57 42 -143 42q-157 0 -223 -146t-66 -524zM369 304q30 -78 96 -123t150 -45q154 0 222 141q68 142 68 469q0 55 -1.5 99t-3.5 78q-5 68 -15 113l-514 -733z" />
<glyph unicode="&#xd9;" d="M147 573l3 918h203v-1012q0 -110 6 -156q6 -47 21 -72q32 -59 92 -89t146 -30q87 0 147 30t93 89q15 25 21 72q6 46 6 154v1014h202v-920q0 -231 -28 -325q-29 -96 -99 -159q-66 -59 -151 -87q-87 -29 -192 -29q-103 0 -190 29q-86 28 -153 87q-69 62 -98 161 q-29 101 -29 325zM380 1897h184l197 -264h-154z" />
<glyph unicode="&#xda;" d="M147 573l3 918h203v-1012q0 -110 6 -156q6 -47 21 -72q32 -59 92 -89t146 -30q87 0 147 30t93 89q15 25 21 72q6 46 6 154v1014h202v-920q0 -231 -28 -325q-29 -96 -99 -159q-66 -59 -151 -87q-87 -29 -192 -29q-103 0 -190 29q-86 28 -153 87q-69 62 -98 161 q-29 101 -29 325zM478 1633l197 264h186l-229 -264h-154z" />
<glyph unicode="&#xdb;" d="M147 573l3 918h203v-1012q0 -110 6 -156q6 -47 21 -72q32 -59 92 -89t146 -30q87 0 147 30t93 89q15 25 21 72q6 46 6 154v1014h202v-920q0 -231 -28 -325q-29 -96 -99 -159q-66 -59 -151 -87q-87 -29 -192 -29q-103 0 -190 29q-86 28 -153 87q-69 62 -98 161 q-29 101 -29 325zM314 1633l211 266h189l211 -266h-140l-166 178l-165 -178h-140z" />
<glyph unicode="&#xdc;" d="M147 573l3 918h203v-1012q0 -110 6 -156q6 -47 21 -72q32 -59 92 -89t146 -30q87 0 147 30t93 89q15 25 21 72q6 46 6 154v1014h202v-920q0 -231 -28 -325q-29 -96 -99 -159q-66 -59 -151 -87q-87 -29 -192 -29q-103 0 -190 29q-86 28 -153 87q-69 62 -98 161 q-29 101 -29 325zM322 1665v203h203v-203h-203zM714 1665v203h202v-203h-202z" />
<glyph unicode="&#xdd;" d="M37 1493h215l364 -659l363 659h217l-479 -823v-670h-203v670zM475 1635l197 264h186l-229 -264h-154z" />
<glyph unicode="&#xde;" d="M201 -1v1493l202 1v-270h254q259 0 384 -105q124 -105 124 -323q0 -219 -124 -324q-125 -105 -384 -105h-254v-367h-202zM403 531h234q158 0 236 66t78 197t-78 197t-236 66h-234v-526z" />
<glyph unicode="&#xdf;" d="M187 1141q0 212 105 316q104 103 321 103q204 0 309 -111q106 -112 107 -327q-155 -14 -239 -75q-84 -62 -84 -162q0 -49 27 -88q27 -38 95 -81l58 -37q152 -93 207 -175q56 -83 56 -198q0 -155 -112 -243q-113 -89 -309 -89q-69 0 -136 12t-133 36v164q74 -31 142 -46 q66 -15 125 -15q107 0 172 48q64 48 64 129q0 71 -33 119q-34 49 -153 122l-67 39q-92 56 -137 122t-45 146q0 127 81 213q81 85 237 120q-2 107 -62 164t-173 57q-121 0 -178 -66t-57 -205v-1133h-187v1137z" />
<glyph unicode="&#xe0;" d="M131 325q0 187 126 285q125 97 369 97h247v29q-2 134 -69 194q-68 60 -214 60q-94 0 -190 -27q-97 -27 -187 -79v184q51 20 99.5 34.5t95.5 24.5q95 20 182 20q138 0 238 -41q98 -40 160 -123q37 -50 54 -123q16 -71 16 -220l-2 -639h-185v166q-58 -100 -148 -148 t-217 -48q-171 0 -273 96t-102 258zM276 1639h198l281 -376h-154zM317 338q0 -101 61 -156q62 -56 169 -56q152 0 239 105q86 104 88 291v41h-172l-62 1q-161 0 -242 -57t-81 -169z" />
<glyph unicode="&#xe1;" d="M131 325q0 187 126 285q125 97 369 97h247v29q-2 134 -69 194q-68 60 -214 60q-94 0 -190 -27q-97 -27 -187 -79v184q51 20 99.5 34.5t95.5 24.5q95 20 182 20q138 0 238 -41q98 -40 160 -123q37 -50 54 -123q16 -71 16 -220l-2 -639h-185v166q-58 -100 -148 -148 t-217 -48q-171 0 -273 96t-102 258zM317 338q0 -101 61 -156q62 -56 169 -56q152 0 239 105q86 104 88 291v41h-172l-62 1q-161 0 -242 -57t-81 -169zM472 1263l281 376h198l-325 -376h-154z" />
<glyph unicode="&#xe2;" d="M131 325q0 187 126 285q125 97 369 97h247v29q-2 134 -69 194q-68 60 -214 60q-94 0 -190 -27q-97 -27 -187 -79v184q51 20 99.5 34.5t95.5 24.5q95 20 182 20q138 0 238 -41q98 -40 160 -123q37 -50 54 -123q16 -71 16 -220l-2 -639h-185v166q-58 -100 -148 -148 t-217 -48q-171 0 -273 96t-102 258zM294 1263l246 376h147l246 -376h-139l-181 245l-180 -245h-139zM317 338q0 -101 61 -156q62 -56 169 -56q152 0 239 105q86 104 88 291v41h-172l-62 1q-161 0 -242 -57t-81 -169z" />
<glyph unicode="&#xe3;" d="M131 325q0 187 126 285q125 97 369 97h247v29q-2 134 -69 194q-68 60 -214 60q-94 0 -190 -27q-97 -27 -187 -79v184q51 20 99.5 34.5t95.5 24.5q95 20 182 20q138 0 238 -41q98 -40 160 -123q37 -50 54 -123q16 -71 16 -220l-2 -639h-185v166q-58 -100 -148 -148 t-217 -48q-171 0 -273 96t-102 258zM283 1309q2 134 52 207q51 74 142 74q38 0 71 -14q30 -13 69 -47l57 -55q22 -20 38 -29t30 -9q39 0 57 37q17 36 19 118h125q-2 -134 -52 -207q-51 -74 -142 -74q-38 0 -71 14q-30 13 -69 47l-59 55q-23 21 -37 29q-17 9 -30 9 q-38 0 -56 -37q-19 -39 -20 -118h-124zM317 338q0 -101 61 -156q62 -56 169 -56q152 0 239 105q86 104 88 291v41h-172l-62 1q-161 0 -242 -57t-81 -169z" />
<glyph unicode="&#xe4;" d="M131 325q0 187 126 285q125 97 369 97h247v29q-2 134 -69 194q-68 60 -214 60q-94 0 -190 -27q-97 -27 -187 -79v184q51 20 99.5 34.5t95.5 24.5q95 20 182 20q138 0 238 -41q98 -40 160 -123q37 -50 54 -123q16 -71 16 -220l-2 -639h-185v166q-58 -100 -148 -148 t-217 -48q-171 0 -273 96t-102 258zM316 1351v202h203v-202h-203zM317 338q0 -101 61 -156q62 -56 169 -56q152 0 239 105q86 104 88 291v41h-172l-62 1q-161 0 -242 -57t-81 -169zM708 1351v202h202v-202h-202z" />
<glyph unicode="&#xe5;" d="M131 325q0 187 126 285q125 97 369 97h247v29q-2 134 -69 194q-68 60 -214 60q-94 0 -190 -27q-97 -27 -187 -79v184q51 20 99.5 34.5t95.5 24.5q95 20 182 20q138 0 238 -41q98 -40 160 -123q37 -50 54 -123q16 -71 16 -220l-2 -639h-185v166q-58 -100 -148 -148 t-217 -48q-171 0 -273 96t-102 258zM317 338q0 -101 61 -156q62 -56 169 -56q152 0 239 105q86 104 88 291v41h-172l-62 1q-161 0 -242 -57t-81 -169zM338 1524q0 115 80 195t195 80q116 0 195 -79q80 -80 80 -195l-2 -1q0 -116 -79 -195q-80 -80 -195 -80t-195 80 q-79 79 -79 195zM459 1523q0 -64 44 -108q43 -43 108 -43q64 0 108 44t44 108l-1 -1q0 63 -44 107t-108 44q-65 0 -108 -43t-43 -108z" />
<glyph unicode="&#xe6;" d="M42 304q0 171 100 261t291 90h117v88q0 120 -49 184t-144 64q-56 0 -122 -21q-67 -21 -128 -60v168q76 34 143 51q68 17 126 17q92 0 153 -31q61 -32 99 -96q33 61 99 94t155 33q174 0 246 -118q72 -119 72 -424v-90l-495 -3q-1 -8 -1 -16v-17v-52q0 -161 51 -233 t163 -72q78 0 144 26q64 25 114 77v-172q-57 -42 -121 -62q-66 -21 -137 -21q-108 0 -184 41q-74 40 -106 119q-39 -80 -105 -120q-65 -40 -163 -40q-156 0 -237 86q-81 85 -81 249zM204 311q0 -89 45 -137t128 -48q91 0 129 66q37 65 37 250l-1 72h-49q-169 0 -229 -45 t-60 -158zM708 657h327l1 52q0 152 -39 218t-126 66t-125 -68t-38 -225v-43z" />
<glyph unicode="&#xe7;" d="M193 555q0 276 147 432t406 156q81 0 158 -21q76 -21 155 -65v-193q-74 64 -147 93q-75 29 -166 29q-173 0 -266 -112q-93 -113 -93 -321q0 -207 93 -319t266 -112q95 0 172 30q76 30 141 92v-191l-1 -1q-72 -42 -152 -64q-78 -21 -160 -21q-259 0 -406 156t-147 432z M499 -242q34 -17 72 -24q35 -7 84 -7q59 0 89 24t30 70q0 31 -22 74q-23 43 -66 105h118l-2 -4q57 -63 83 -114q27 -53 27 -100q0 -89 -60 -134t-178 -45q-45 0 -88 6q-44 6 -87 18v131z" />
<glyph unicode="&#xe8;" d="M123 559q0 268 144 429q144 160 384 160q215 0 338 -145q124 -146 131 -351l-1 -89h-797v-6q-8 -230 88 -330t270 -100q90 0 184 28q97 29 205 85v-183q-103 -43 -202 -64q-98 -21 -189 -21q-261 0 -408 156t-147 431zM290 1640h198l281 -376h-154zM329 706l606 1l-2 1 q-12 116 -84 200t-208 84q-134 0 -219 -88q-86 -89 -93 -198z" />
<glyph unicode="&#xe9;" d="M123 559q0 268 144 429q144 160 384 160q215 0 338 -145q124 -146 131 -351l-1 -89h-797v-6q-8 -230 88 -330t270 -100q90 0 184 28q97 29 205 85v-183q-103 -43 -202 -64q-98 -21 -189 -21q-261 0 -408 156t-147 431zM329 706l606 1l-2 1q-12 116 -84 200t-208 84 q-134 0 -219 -88q-86 -89 -93 -198zM486 1264l281 376h198l-325 -376h-154z" />
<glyph unicode="&#xea;" d="M123 559q0 268 144 429q144 160 384 160q215 0 338 -145q124 -146 131 -351l-1 -89h-797v-6q-8 -230 88 -330t270 -100q90 0 184 28q97 29 205 85v-183q-103 -43 -202 -64q-98 -21 -189 -21q-261 0 -408 156t-147 431zM308 1264l246 376h147l246 -376h-139l-181 245 l-180 -245h-139zM329 706l606 1l-2 1q-12 116 -84 200t-208 84q-134 0 -219 -88q-86 -89 -93 -198z" />
<glyph unicode="&#xeb;" d="M123 559q0 268 144 429q144 160 384 160q215 0 338 -145q124 -146 131 -351l-1 -89h-797v-6q-8 -230 88 -330t270 -100q90 0 184 28q97 29 205 85v-183q-103 -43 -202 -64q-98 -21 -189 -21q-261 0 -408 156t-147 431zM329 706l606 1l-2 1q-12 116 -84 200t-208 84 q-134 0 -219 -88q-86 -89 -93 -198zM330 1352v202h203v-202h-203zM722 1352v202h202v-202h-202z" />
<glyph unicode="&#xec;" d="M178 0v143h365v834h-287v143h471v-977h365v-143h-914zM279 1638h198l281 -376h-154z" />
<glyph unicode="&#xed;" d="M178 0v143h365v834h-287v143h471v-977h365v-143h-914zM475 1262l281 376h198l-325 -376h-154z" />
<glyph unicode="&#xee;" d="M178 0v143h365v834h-287v143h471v-977h365v-143h-914zM297 1262l246 376h147l246 -376h-139l-181 245l-180 -245h-139z" />
<glyph unicode="&#xef;" d="M178 0v143h365v834h-287v143h471v-977h365v-143h-914zM343 1350v202h203v-202h-203zM735 1350v202h202v-202h-202z" />
<glyph unicode="&#xf0;" d="M135 533q0 265 126 414q126 148 350 148h30t22 -1q18 -2 33 -3q-33 45 -69 90l-74 89l-279 -92l-30 98l237 80l-182 200h219l127 -145l289 94l33 -98l-250 -80v-2q196 -212 288 -402q91 -189 91 -390q0 -269 -126 -417t-355 -148q-228 0 -354 148t-126 417zM332 532 q0 -196 74 -303q73 -106 210 -106t210 106q74 107 74 303q0 108 -29 212q-28 101 -78 172l-2 -1q-37 14 -75 20q-41 6 -86 6q-146 0 -222 -105q-76 -104 -76 -304z" />
<glyph unicode="&#xf1;" d="M196 -2v1120h184v-168q50 97 133 146q85 50 199 50q171 0 255 -112q84 -113 84 -340l-1 -697h-185v694q0 151 -53 222t-165 71q-129 0 -198 -91q-69 -92 -69 -262v-633h-184zM285 1305q2 134 52 207q51 74 142 74q38 0 71 -14q30 -13 69 -47l57 -55q22 -20 38 -29t30 -9 q39 0 57 37q17 36 19 118h125q-2 -134 -52 -207q-51 -74 -142 -74q-38 0 -71 14q-30 13 -69 47l-59 55q-23 21 -37 29q-17 9 -30 9q-38 0 -56 -37q-19 -39 -20 -118h-124z" />
<glyph unicode="&#xf2;" d="M137 556q0 286 123 438q123 151 356 151h1q233 0 356 -151q123 -152 123 -438q0 -287 -123 -437t-357 -150q-233 0 -356 150t-123 437zM280 1636h198l281 -376h-154zM332 556q0 -213 72 -322t212 -109q141 0 213 110q72 109 72 323t-72 324q-72 109 -213 109v-2 q-140 0 -212 -109q-72 -110 -72 -324z" />
<glyph unicode="&#xf3;" d="M137 556q0 286 123 438q123 151 356 151h1q233 0 356 -151q123 -152 123 -438q0 -287 -123 -437t-357 -150q-233 0 -356 150t-123 437zM332 556q0 -213 72 -322t212 -109q141 0 213 110q72 109 72 323t-72 324q-72 109 -213 109v-2q-140 0 -212 -109q-72 -110 -72 -324z M476 1260l281 376h198l-325 -376h-154z" />
<glyph unicode="&#xf4;" d="M137 556q0 286 123 438q123 151 356 151h1q233 0 356 -151q123 -152 123 -438q0 -287 -123 -437t-357 -150q-233 0 -356 150t-123 437zM298 1260l246 376h147l246 -376h-139l-181 245l-180 -245h-139zM332 556q0 -213 72 -322t212 -109q141 0 213 110q72 109 72 323 t-72 324q-72 109 -213 109v-2q-140 0 -212 -109q-72 -110 -72 -324z" />
<glyph unicode="&#xf5;" d="M137 556q0 286 123 438q123 151 356 151h1q233 0 356 -151q123 -152 123 -438q0 -287 -123 -437t-357 -150q-233 0 -356 150t-123 437zM287 1306q2 134 52 207q51 74 142 74q38 0 71 -14q30 -13 69 -47l57 -55q22 -20 38 -29t30 -9q39 0 57 37q17 36 19 118h125 q-2 -134 -52 -207q-51 -74 -142 -74q-38 0 -71 14q-30 13 -69 47l-59 55q-23 21 -37 29q-17 9 -30 9q-38 0 -56 -37q-19 -39 -20 -118h-124zM332 556q0 -213 72 -322t212 -109q141 0 213 110q72 109 72 323t-72 324q-72 109 -213 109v-2q-140 0 -212 -109q-72 -110 -72 -324 z" />
<glyph unicode="&#xf6;" d="M137 556q0 286 123 438q123 151 356 151h1q233 0 356 -151q123 -152 123 -438q0 -287 -123 -437t-357 -150q-233 0 -356 150t-123 437zM320 1348v202h203v-202h-203zM332 556q0 -213 72 -322t212 -109q141 0 213 110q72 109 72 323t-72 324q-72 109 -213 109v-2 q-140 0 -212 -109q-72 -110 -72 -324zM712 1348v202h202v-202h-202z" />
<glyph unicode="&#xf7;" d="M88 557v170h1057v-170h-1057zM494 150v245h245v-245h-245zM494 889v246h245v-246h-245z" />
<glyph unicode="&#xf8;" d="M47 -22l170 200l-1 -4q-39 70 -60 168q-21 97 -21 210q0 286 123 438q123 151 356 151q100 0 180 -27q78 -26 139 -83l147 176l93 -77l-164 -195q41 -65 64 -162q22 -94 22 -218q0 -287 -123 -437t-357 -150q-103 0 -181 30t-135 90l-160 -186zM327 573q0 -24 1.5 -50.5 t5.5 -55.5q7 -59 21 -129l461 557h1q-35 49 -84 71q-51 23 -117 23q-139 0 -214 -107t-75 -309zM413 219q35 -46 87 -70q51 -24 116 -24q141 0 213 110q72 109 72 323q0 52 -6 108q-6 55 -18 114z" />
<glyph unicode="&#xf9;" d="M193 1116h184v-694q0 -152 54 -222q54 -71 166 -71q130 0 199 92q69 91 69 263v633h185v-1118h-185v168q-50 -98 -133 -147q-85 -50 -197 -50q-172 0 -256 113q-84 112 -84 341zM277 1636h198l281 -376h-154z" />
<glyph unicode="&#xfa;" d="M193 1116h184v-694q0 -152 54 -222q54 -71 166 -71q130 0 199 92q69 91 69 263v633h185v-1118h-185v168q-50 -98 -133 -147q-85 -50 -197 -50q-172 0 -256 113q-84 112 -84 341zM473 1260l281 376h198l-325 -376h-154z" />
<glyph unicode="&#xfb;" d="M193 1116h184v-694q0 -152 54 -222q54 -71 166 -71q130 0 199 92q69 91 69 263v633h185v-1118h-185v168q-50 -98 -133 -147q-85 -50 -197 -50q-172 0 -256 113q-84 112 -84 341zM295 1260l246 376h147l246 -376h-139l-181 245l-180 -245h-139z" />
<glyph unicode="&#xfc;" d="M193 1116h184v-694q0 -152 54 -222q54 -71 166 -71q130 0 199 92q69 91 69 263v633h185v-1118h-185v168q-50 -98 -133 -147q-85 -50 -197 -50q-172 0 -256 113q-84 112 -84 341zM317 1348v202h203v-202h-203zM709 1348v202h202v-202h-202z" />
<glyph unicode="&#xfd;" d="M104 1120h195l332 -876l327 876h195l-295 -760l-117 -308q-99 -265 -133 -322q-47 -78 -115 -117q-69 -39 -161 -39h-148v154h109q80 0 127 47q46 46 117 243zM475 1262l281 376h198l-325 -376h-154z" />
<glyph unicode="&#xfe;" d="M188 -425v1993h185v-590q46 82 123 126t177 44q203 0 318 -157q116 -158 116 -435q0 -272 -116 -429q-116 -156 -318 -156q-101 0 -178 44q-77 43 -120 126l-2 -566h-185zM372 558q0 -212 69 -321q69 -110 203 -110t201 109q68 110 68 324l-1 -4q0 215 -67 324t-201 109 t-203 -109q-69 -110 -69 -322z" />
<glyph unicode="&#xff;" d="M104 1120h195l332 -876l327 876h195l-295 -760l-117 -308q-99 -265 -133 -322q-47 -78 -115 -117q-69 -39 -161 -39h-148v154h109q80 0 127 47q46 46 117 243zM319 1350v202h203v-202h-203zM711 1350v202h202v-202h-202z" />
<glyph unicode="&#x152;" d="M73 746q0 416 122 582q121 165 417 165h594v-170h-358v-442h328v-170h-328v-541h369l2 -170h-605q-295 0 -418 167q-123 166 -123 579zM277 744q0 -346 69 -460t246 -114h61v1153h-61v-1q-177 0 -246 -115q-69 -116 -69 -463z" />
<glyph unicode="&#x153;" d="M15 556q0 313 85 450q85 138 274 138q90 0 153 -31q64 -32 111 -96q38 62 102 95t152 33q175 0 247 -118q72 -119 72 -424v-90l-493 -1v-84q0 -162 50 -235q49 -72 162 -72q79 0 145 27q67 27 113 78v-172q-58 -43 -121 -64t-136 -21q-98 0 -171 33t-121 99 q-52 -67 -117 -100t-148 -33q-189 0 -274 138q-85 137 -85 450zM190 558q0 -269 40 -352q40 -84 144 -84q102 0 143 84q41 85 41 323q0 292 -40 378q-41 87 -144 87q-104 0 -144 -84q-40 -83 -40 -352zM719 657h328l1 -1v12.5t1 17.5t1 16.5v11.5q0 146 -40 213 q-41 68 -126 68q-87 0 -126 -69t-39 -226v-43z" />
<glyph unicode="&#x178;" d="M37 1493h215l364 -659l363 659h217l-479 -823v-670h-203v670zM319 1667v203h203v-203h-203zM711 1667v203h202v-203h-202z" />
<glyph unicode="&#x2c6;" d="M297 1262l246 376h147l246 -376h-139l-181 245l-180 -245h-139z" />
<glyph unicode="&#x2dc;" d="M286 1308q2 134 52 207q51 74 142 74q38 0 71 -14q30 -13 69 -47l57 -55q22 -20 38 -29t30 -9q39 0 57 37q17 36 19 118h125q-2 -134 -52 -207q-51 -74 -142 -74q-38 0 -71 14q-30 13 -69 47l-59 55q-23 21 -37 29q-17 9 -30 9q-38 0 -56 -37q-19 -39 -20 -118h-124z" />
<glyph unicode="&#x2000;" horiz-adv-x="951" />
<glyph unicode="&#x2001;" horiz-adv-x="1902" />
<glyph unicode="&#x2002;" horiz-adv-x="951" />
<glyph unicode="&#x2003;" horiz-adv-x="1902" />
<glyph unicode="&#x2004;" horiz-adv-x="634" />
<glyph unicode="&#x2005;" horiz-adv-x="475" />
<glyph unicode="&#x2006;" horiz-adv-x="317" />
<glyph unicode="&#x2007;" horiz-adv-x="317" />
<glyph unicode="&#x2008;" horiz-adv-x="237" />
<glyph unicode="&#x2009;" horiz-adv-x="380" />
<glyph unicode="&#x200a;" horiz-adv-x="105" />
<glyph unicode="&#x2010;" d="M102 555v169h1060v-169h-1060z" />
<glyph unicode="&#x2011;" d="M102 555v169h1060v-169h-1060z" />
<glyph unicode="&#x2012;" d="M102 555v169h1060v-169h-1060z" />
<glyph unicode="&#x2013;" d="M0 552v171h1233v-171h-1233z" />
<glyph unicode="&#x2014;" d="M0 552v171h1233v-171h-1233z" />
<glyph unicode="&#x2018;" d="M463 967v207l196 382h154l-98 -382v-207h-252z" />
<glyph unicode="&#x2019;" d="M463 967l98 383v206h252v-206l-197 -383h-153z" />
<glyph unicode="&#x201a;" d="M403 -287l99 383v207h252v-207l-197 -383h-154z" />
<glyph unicode="&#x201c;" d="M211 967v207l199 382h153l-98 -382v-207h-254zM672 967v207l196 382h154l-98 -382v-207h-252z" />
<glyph unicode="&#x201d;" d="M211 967l98 383v206h252v-206l-196 -383h-154zM670 967l98 383v206h252v-206l-197 -383h-153z" />
<glyph unicode="&#x201e;" d="M211 -287l98 383v207h252v-207l-196 -383h-154zM670 -287l98 383v207h252v-207l-197 -383h-153z" />
<glyph unicode="&#x2022;" d="M319 761q0 124 86 210t210 86q123 0 211 -86q87 -86 87 -209q0 -124 -87 -211t-212 -87q-124 0 -210 86q-85 85 -85 212v-1z" />
<glyph unicode="&#x2026;" d="M80 0v305h252v-305h-252zM489 0v305h252v-305h-252zM899 0v305h252v-305h-252z" />
<glyph unicode="&#x202f;" horiz-adv-x="380" />
<glyph unicode="&#x2039;" d="M346 559v82l469 418v-191l-301 -268l301 -268v-191z" />
<glyph unicode="&#x203a;" d="M420 141v191l301 268l-301 268v191l469 -418v-82z" />
<glyph unicode="&#x205f;" horiz-adv-x="475" />
<glyph unicode="&#x20ac;" d="M37 543l49 110h117q-1 11 -3 32q-1 23 -1.5 37.5t-0.5 22.5q0 9 0.5 25.5t1.5 39.5q1 19 3 30h-166l49 108h125h-3q48 283 185 428q136 144 360 144q83 0 158 -20q72 -19 147 -62v-207q-66 62 -145 96q-78 34 -157 34q-146 0 -233 -104q-87 -103 -111 -308h481l-49 -108 h-442q-1 -10 -1.5 -20.5t-0.5 -21.5v-69v-34q0 -10 0.5 -20.5t1.5 -21.5h361l-49 -110h-301q22 -201 110 -307q87 -105 234 -105q80 0 158 33t146 95v-207q-73 -43 -146 -62q-75 -20 -159 -20q-226 0 -364 144q-137 143 -181 428h-174z" />
<glyph unicode="&#x2122;" d="M0 1399v94h438v-94h-162v-484h-114v484h-162zM522 915v578h170l137 -256l125 256h172v-578h-114v482l-156 -301h-55l-166 301v-482h-113z" />
<glyph unicode="&#xe000;" horiz-adv-x="1120" d="M0 0v1120h1120v-1120h-1120z" />
<glyph unicode="&#xfb01;" d="M36 977v143h201v78q0 184 84 271t263 87h192l2 -153h-180q-99 0 -138 -40q-39 -41 -39 -144v-101h659v-1118h-184v977h-475v-977h-184v977h-201zM895 1321v233h184v-233h-184z" />
<glyph unicode="&#xfb02;" d="M36 977v143h201v78q0 184 84 271t263 87h495l2 -1556h-184v1403h-299q-99 0 -138 -40q-39 -41 -39 -144v-101h293v-141h-293v-977h-184v977h-201z" />
</font>
</defs>
</svg>
