<svg width="30px" height="30px" viewBox="0 0 30 30" version="1.1" xmlns="http://www.w3.org/2000/svg" xmlns:xlink="http://www.w3.org/1999/xlink">
    <title>jsbin-avatar.svg</title>
    <style>
      @media (max-width: 100px) {
        text {
          display: none;
        }
      }
    </style>
    <g id="avatar" stroke="none" stroke-width="1" fill="none" fill-rule="evenodd">
        <g id="jsbin.fagub">
            <g id="Page-1">
                <g id="eyes" fill="{{fill}}">
                    <path d="M0,10 L0,20 L30,20 L30,10 L0,10 L0,10 Z" id="face" fill="#183E49"></path>
                    <g transform="translate(5.000000, 12.000000)">
                        <path d="M17.4545455,6 C19.1113997,6 20.4545455,4.6568542 20.4545455,3 C20.4545455,1.3431458 19.1113997,0 17.4545455,0 C15.7976912,0 14.4545455,1.3431458 14.4545455,3 C14.4545455,4.6568542 15.7976912,6 17.4545455,6 L17.4545455,6 Z" id="right"></path>
                        <path d="M2.72727273,6 C4.38412698,6 5.72727273,4.6568542 5.72727273,3 C5.72727273,1.3431458 4.38412698,0 2.72727273,0 C1.07041848,0 -0.27272727,1.3431458 -0.27272727,3 C-0.27272727,4.6568542 1.07041848,6 2.72727273,6 L2.72727273,6 Z" id="left"></path>
                    </g>
                    <rect id="head-top" fill="#93A6AD" x="0" y="0" width="30" height="10"></rect>
                    <rect id="head-bottom" fill="#93A6AD" x="0" y="20" width="30" height="10">
                    </rect>
                    <text x="1" y="26" style="font-size: 0.2em; font-family: courier; fill: hsl(196, 14%, 43%); text-shadow: 1px 1px 0 hsl(196, 14%, 70%); text-overflow: ellipsis;" id="name" fill="#fff">@</text>
                </g>
            </g>
        </g>
    </g>
    <script type="text/javascript" id="jsbin-javascript"><![CDATA[
var string = document.defaultView.location.href.split('?')[1].split('&')[0];

function hash(seed) {
    /*jshint bitwise:false */
    var i, l,
        // username as seed instead of a string and a possible string?
        hval = (seed === undefined) ? 0x811c9dc5 : seed;
    // i didn't change this, i have absolutely no knowledge of creating hashes.
    for (i = 0, l = seed.length; i < l; i++) {
        hval ^= seed.charCodeAt(i);
        hval += (hval << 1) + (hval << 4) + (hval << 7) + (hval << 8) + (hval << 24);
    }
    // max of 8 numbers to prevent hitting upper level, no
    return ((hval >>> 0).toString()).substr(-8);
}

document.getElementById('eyes').style.fill = string ? 'hsl(' + hash(string, true) + ',100%,50%)' : 'rgb(144, 218, 255)';
document.getElementById('name').innerHTML = '@' + string;
]]></script>
</svg>
