<svg width="30" height="30" viewBox="0 0 30 30" xmlns="http://www.w3.org/2000/svg"><title>jsbin-avatar.svg</title><style>@media (max-width: 100px) { text { display: none; } }</style><g id="eyes" fill="{{fill}}"><path d="M0 10v10h30V10H0z" id="face" fill="#183E49"/><path d="M22.455 18c1.656 0 3-1.343 3-3s-1.344-3-3-3c-1.657 0-3 1.343-3 3s1.343 3 3 3z" id="right"/><path d="M7.727 18c1.657 0 3-1.343 3-3s-1.343-3-3-3-3 1.343-3 3 1.343 3 3 3z" id="left"/><path id="head-top" fill="#93A6AD" d="M0 0h30v10H0z"/><path id="head-bottom" fill="#93A6AD" d="M0 20h30v10H0z"/><text x="1" y="26" style="text-shadow:1px 1px 0 hsl(196, 14%, 70%);text-overflow:ellipsis" id="name" fill="hsl(196, 14%, 43%)" font-size=".2em" font-family="courier">@</text></g><script type="text/javascript" id="jsbin-javascript"><![CDATA[!function(a){function c(a){var b,c,d=void 0===a?2166136261:a;for(b=0,c=a.length;c>b;b++)d^=a.charCodeAt(b),d+=(d<<1)+(d<<4)+(d<<7)+(d<<8)+(d<<24);return(d>>>0).toString().substr(-8)}var b=a.defaultView.location.href.split("?")[1].split("&")[0];a.getElementById("eyes").style.fill=b?"hsl("+c(b,!0)+",100%,50%)":"rgb(144, 218, 255)",a.getElementById("name").innerHTML="@"+b}(document);]]></script></svg>