<svg width="30" height="30" viewBox="0 0 30 30" xmlns="http://www.w3.org/2000/svg"><title>jsbin-avatar.svg</title><g id="eyes" fill="#fff"><path d="M0 10v10h30V10H0z" id="face" fill="#183E49"/><path d="M22.455 18c1.656 0 3-1.343 3-3s-1.344-3-3-3c-1.657 0-3 1.343-3 3s1.343 3 3 3z" id="right"/><path d="M7.727 18c1.657 0 3-1.343 3-3s-1.343-3-3-3-3 1.343-3 3 1.343 3 3 3z" id="left"/><path id="head-top" fill="#93A6AD" d="M0 20h30v10H0z"/><path id="head-bottom" fill="#93A6AD" d="M0 0h30v10H0z"/></g><script type="text/javascript" id="jsbin-javascript"><![CDATA[
!function(){function b(a){var b,c,d=void 0===a?2166136261:a;for(b=0,c=a.length;c>b;b++)d^=a.charCodeAt(b),d+=(d<<1)+(d<<4)+(d<<7)+(d<<8)+(d<<24);return(d>>>0).toString().substr(-8)}var a=document.defaultView.location.href.split("?")[1];document.getElementById("eyes").style.fill=a?"hsl("+b(a,!0)+",100%,50%)":"rgb(144, 218, 255)"}();
]]></script></svg>